<svg width="720" height="720" viewBox="0 0 720 720" fill="none" xmlns="http://www.w3.org/2000/svg">
<path d="M321.885 32.4806C345.882 18.9859 375.181 18.9859 399.178 32.4806L631.039 162.865C655.871 176.829 671.239 203.102 671.239 231.59V488.797C671.239 517.286 655.871 543.558 631.039 557.522L399.178 687.907C375.181 701.401 345.882 701.401 321.885 687.907L90.0236 557.522C65.1921 543.558 49.8244 517.286 49.8244 488.797V231.59C49.8244 203.102 65.1921 176.829 90.0237 162.865L321.885 32.4806Z" fill="url(#paint0_radial_645_423)"/>
<path d="M412.233 350.867C370.868 376.164 347.226 376.697 308.906 350.867L358.417 459.216L412.233 350.867Z" fill="#D9DDDF"/>
<mask id="mask0_645_423" style="mask-type:alpha" maskUnits="userSpaceOnUse" x="49" y="22" width="623" height="677">
<path d="M321.885 32.4806C345.882 18.9859 375.181 18.9859 399.178 32.4806L631.039 162.865C655.871 176.829 671.239 203.102 671.239 231.59V488.797C671.239 517.286 655.871 543.558 631.039 557.522L399.178 687.907C375.181 701.401 345.882 701.401 321.885 687.907L90.0236 557.522C65.1921 543.558 49.8244 517.286 49.8244 488.797V231.59C49.8244 203.102 65.1921 176.829 90.0237 162.865L321.885 32.4806Z" fill="#D0D1D3"/>
</mask>
<g mask="url(#mask0_645_423)">
<path d="M674.965 474.057L671.167 200.432C665.905 180.256 655.237 147.512 654.663 177.936C654.089 208.36 632.53 224.576 621.822 228.882L406.39 353.091C377.976 369.473 360.469 399.776 360.469 432.574V713.227L627.138 558.462C657.162 541.037 675.447 508.768 674.965 474.057Z" fill="url(#paint1_linear_645_423)"/>
</g>
<mask id="mask1_645_423" style="mask-type:alpha" maskUnits="userSpaceOnUse" x="49" y="22" width="623" height="677">
<path d="M399.17 32.4806C375.172 18.9859 345.874 18.9859 321.876 32.4806L90.0153 162.865C65.1838 176.829 49.816 203.102 49.816 231.59V488.797C49.816 517.286 65.1838 543.558 90.0153 557.522L321.876 687.907C345.874 701.401 375.172 701.401 399.17 687.907L631.031 557.522C655.863 543.558 671.23 517.286 671.23 488.797V231.59C671.23 203.102 655.863 176.829 631.031 162.865L399.17 32.4806Z" fill="#D0D1D3"/>
</mask>
<g mask="url(#mask1_645_423)">
<path d="M46.0731 474.057L49.8717 200.432C55.1337 180.256 65.8013 147.512 66.3753 177.936C66.9493 208.36 88.5085 224.576 99.2163 228.882L314.648 353.091C343.062 369.473 360.57 399.776 360.57 432.574V640.754C360.57 665.868 375.958 681.571 402.188 696.722C382.571 701.883 346.936 728.295 346.936 728.295L309.624 683.659L93.9007 558.462C63.8766 541.037 45.5912 508.768 46.0731 474.057Z" fill="url(#paint2_linear_645_423)"/>
</g>
<path d="M667.586 231.638C667.586 204.416 652.9 179.31 629.172 165.967L397.396 35.63C374.465 22.735 346.467 22.735 323.536 35.63L91.76 165.967C68.0319 179.31 53.3475 204.416 53.3473 231.638V488.747C53.3475 515.97 68.0319 541.075 91.76 554.418L323.536 684.755C346.467 697.65 374.465 697.65 397.396 684.755L629.172 554.418C652.9 541.075 667.586 515.97 667.586 488.747V231.638ZM674.762 488.747C674.761 518.562 658.678 546.059 632.69 560.673L400.912 691.01C375.797 705.133 345.135 705.133 320.02 691.01L88.2423 560.673C62.2545 546.059 46.172 518.562 46.1719 488.747V231.638C46.172 201.823 62.2544 174.326 88.2423 159.712L320.02 29.3753C345.135 15.2525 375.797 15.2525 400.912 29.3753L632.69 159.712C658.678 174.326 674.761 201.823 674.762 231.638V488.747Z" fill="#9EA4A9"/>
<defs>
<radialGradient id="paint0_radial_645_423" cx="0" cy="0" r="1" gradientUnits="userSpaceOnUse" gradientTransform="translate(70.6423 196.593) rotate(-0.703845) scale(584.128 599.72)">
<stop stop-color="#E0E3E4"/>
<stop offset="1" stop-color="#C4C9CC"/>
</radialGradient>
<linearGradient id="paint1_linear_645_423" x1="666.861" y1="187.981" x2="375.537" y2="688.112" gradientUnits="userSpaceOnUse">
<stop stop-color="#BCBFC3"/>
<stop offset="0.5" stop-color="#A9ADB2"/>
<stop offset="1" stop-color="#AAAFB4"/>
</linearGradient>
<linearGradient id="paint2_linear_645_423" x1="44.8489" y1="218.836" x2="378.508" y2="697.44" gradientUnits="userSpaceOnUse">
<stop stop-color="#DBDEE0"/>
<stop offset="0.961538" stop-color="#AEB5B9"/>
<stop offset="1" stop-color="#B1B5B9"/>
</linearGradient>
</defs>
</svg>
